<?xml version="1.0" encoding="utf-8"?>
<!-- Generator: Adobe Illustrator 27.1.1, SVG Export Plug-In . SVG Version: 6.00 Build 0)  -->
<svg version="1.1" id="Layer_1" xmlns="http://www.w3.org/2000/svg" xmlns:xlink="http://www.w3.org/1999/xlink" x="0px" y="0px"
	 width="56px" height="61px" viewBox="0 0 56 61" style="enable-background:new 0 0 56 61;" xml:space="preserve">
<style type="text/css">
	.st0{fill:none;}
	.st1{fill:#0D0D0D;}
	.st2{fill:#414141;}
	.st3{fill:#ACACAC;}
	.st4{fill:#820000;}
	.st5{fill:#FF3F36;}
	.st6{fill:#EB140A;}
	.st7{fill:#B80000;}
	.st8{fill:#FDC9C4;}
</style>
<g>
	<rect class="st0" width="56" height="61"/>
	<g>
		<g>
			<path class="st1" d="M39,19.3c0,0,4.1-1.3,7.4-4.5v2.7c-1.8,1.5-4.1,2.3-4.1,2.3L39,19.3z"/>
			<path class="st1" d="M54,1.8l0,1.7c0.3,10.1,0.3,20.3-0.1,30.4c0-0.1,0-0.1,0-0.2l0,4.8L56,37V3.9L54,1.8z"/>
			<path class="st2" d="M54,3.5C54,3.5,54,3.5,54,3.5l0-1.6l-6.5,0.9c-0.6,1.7-1.3,5.5-8.5,9.1v7.4c0,0,4.1-1.3,7.4-4.5v2.7v20.5
				l7.6,0.6l0-4.8C53.6,23.6,53.7,13.5,54,3.5z"/>
			<path class="st3" d="M54,3.5c0.3,10.1,0.3,20.3-0.1,30.4C53.6,23.8,53.7,13.6,54,3.5L54,3.5z"/>
		</g>
		<polygon class="st4" points="35.6,55.8 33,46.8 29.6,46.9 31.8,54.4 		"/>
		<polygon class="st4" points="27.5,38.5 24.3,26.9 26.2,20.9 31.2,38.5 		"/>
		<path class="st5" d="M31.2,10.2l-10.5-2L17.6,17C14,28.1,10.2,39.3,6.2,50.3c7.3-2.2,12.1-6.7,15.8-11.8h-1.2l5.3-17.5l1.7,5.9
			C31.3,17.4,31.2,10.2,31.2,10.2z"/>
		<g>
			<polygon class="st6" points="3,59.2 3,59.2 3,59.2 			"/>
			<path class="st6" d="M31.3,10.2l-0.2,0c0,0,0.1,7.2-3.3,16.7l3.3,11.6H22c-3.7,5.2-8.5,9.7-15.8,11.8c-1.1,3-2.1,5.9-3.2,8.9
				l12.6-1.3l3-10.4L33,46.8l2.6,9l9-1L31.3,10.2z"/>
		</g>
		<path class="st7" d="M17.9,16.1c-0.1,0.2-0.1,0.4-0.2,0.6l2.9-8.5l-4.5,2.3L0,56.7l3,2.5l0,0C7.6,44.7,12.7,30.3,17.9,16.1z"/>
		<path class="st8" d="M17.9,16.1C13.2,30.5,8.2,45,3,59.2C7.6,44.7,12.7,30.3,17.9,16.1L17.9,16.1z"/>
	</g>
</g>
</svg>
