<?xml version="1.0" standalone="no"?>
<!DOCTYPE svg PUBLIC "-//W3C//DTD SVG 20010904//EN"
 "http://www.w3.org/TR/2001/REC-SVG-20010904/DTD/svg10.dtd">
<svg version="1.0" xmlns="http://www.w3.org/2000/svg"
 width="70.000000pt" height="70.000000pt" viewBox="0 0 70.000000 70.000000"
 preserveAspectRatio="xMidYMid meet">
<metadata>
Created by potrace 1.14, written by Peter Selinger 2001-2017
</metadata>
<g transform="translate(0.000000,70.000000) scale(0.100000,-0.100000)"
fill="#000000" stroke="none">
<path d="M26 675 c-19 -20 -32 -103 -19 -124 9 -14 47 -16 308 -16 230 0 299
3 303 13 3 9 -59 12 -287 12 l-291 0 -5 23 c-4 12 -1 35 4 50 l11 27 300 0
300 0 11 -27 c15 -41 8 -568 -9 -585 -19 -19 -585 -19 -604 0 -10 10 -14 67
-16 223 -2 157 -6 209 -15 206 -16 -5 -22 -362 -7 -417 9 -33 16 -41 48 -50
49 -13 535 -13 584 0 53 15 58 42 58 340 0 249 -6 315 -32 332 -7 4 -151 8
-320 8 -260 0 -309 -2 -322 -15z"/>
<path d="M75 620 c-4 -6 -3 -16 3 -22 6 -6 12 -6 17 2 4 6 3 16 -3 22 -6 6
-12 6 -17 -2z"/>
<path d="M130 610 c0 -5 5 -10 10 -10 6 0 10 5 10 10 0 6 -4 10 -10 10 -5 0
-10 -4 -10 -10z"/>
<path d="M190 610 c0 -5 5 -10 10 -10 6 0 10 5 10 10 0 6 -4 10 -10 10 -5 0
-10 -4 -10 -10z"/>
<path d="M100 376 c0 -3 9 -45 21 -95 17 -74 24 -91 39 -91 14 0 21 13 31 57
l13 58 14 -58 c8 -31 20 -57 26 -57 7 0 18 25 26 58 7 31 16 62 20 67 4 6 10
22 14 38 5 22 3 27 -13 27 -15 0 -22 -12 -33 -57 l-14 -58 -13 58 c-14 63 -35
76 -46 26 -4 -17 -13 -41 -19 -54 -12 -24 -13 -22 -25 30 -8 35 -18 55 -27 55
-8 0 -14 -2 -14 -4z"/>
<path d="M342 283 l3 -98 44 0 c56 0 68 22 14 27 -33 3 -38 6 -38 28 0 22 5
25 38 28 23 2 37 8 37 17 0 9 -14 15 -37 17 -33 3 -38 6 -38 28 0 22 5 25 38
28 55 5 45 22 -13 22 l-51 0 3 -97z"/>
<path d="M470 286 c0 -86 2 -95 20 -101 33 -10 79 5 97 31 15 23 15 28 0 59
-9 19 -14 41 -11 49 3 8 1 24 -6 35 -8 16 -20 21 -55 21 l-45 0 0 -94z m75 49
c0 -13 -8 -21 -22 -23 -19 -3 -23 1 -23 23 0 22 4 26 23 23 14 -2 22 -10 22
-23z m16 -71 c18 -21 0 -48 -35 -52 -24 -3 -26 0 -26 32 0 31 3 36 24 36 13 0
29 -7 37 -16z"/>
</g>
</svg>
